<svg xmlns="http://www.w3.org/2000/svg" viewBox="0 0 248 248"><defs><style>.cls-1{fill:#ebebec;}.cls-2{fill:#ea5d56;}.cls-3,.cls-4{fill:#fff;}.cls-4{stroke:#35535d;stroke-miterlimit:10;stroke-width:2px;}</style></defs><g id="Marcas_de_recorte" data-name="Marcas de recorte"><circle class="cls-1" cx="124" cy="124" r="124"/><rect class="cls-2" x="100.27" y="116.87" width="133.96" height="100.41"/><rect class="cls-3" x="100.27" y="98.38" width="133.96" height="17"/><path class="cls-4" d="M270.88,120.23h-134c-5.3,0-9.6,3.91-9.6,8.72v113c0,4.8,4.3,8.71,9.6,8.71h134c5.3,0,9.6-3.91,9.6-8.71V129C280.48,124.14,276.18,120.23,270.88,120.23Zm-134,8.72h134v14.46h-134Zm134,113h-134V152.12h134Z" transform="translate(-36.64 -29.95)"/><rect class="cls-4" x="166.32" y="139.09" width="53.23" height="17.14"/><rect class="cls-4" x="166.32" y="176.35" width="53.23" height="17.14"/><rect class="cls-4" x="115.86" y="139.09" width="36.47" height="54.4"/><polygon class="cls-4" points="115.52 134.98 92.54 113.73 102.62 102.13 125.61 123.38 115.52 134.98"/><path class="cls-4" d="M96.14,50A57.37,57.37,0,1,1,42,110.46,57.38,57.38,0,0,1,96.14,50Z" transform="translate(-36.64 -29.95)"/><path class="cls-2" d="M96.79,62A45.35,45.35,0,1,1,54,109.8,45.36,45.36,0,0,1,96.79,62Z" transform="translate(-36.64 -29.95)"/><path class="cls-4" d="M158.86,144.44,143.12,162a1,1,0,0,0,.08,1.52L192,207.28a1,1,0,0,0,1.51-.08l15.73-17.55a1,1,0,0,0-.08-1.51l-48.83-43.78A1.12,1.12,0,0,0,158.86,144.44Z" transform="translate(-36.64 -29.95)"/></g></svg>