<svg xmlns="http://www.w3.org/2000/svg" viewBox="0 0 254 248"><defs><style>.cls-1{fill:#ebebec;}.cls-2{fill:#ea5d56;}.cls-3,.cls-4{fill:#fff;}.cls-4{stroke:#35535d;stroke-miterlimit:10;stroke-width:2px;}.cls-5{font-size:18.62px;fill:#324a5e;font-family:GloberBlack;}.cls-6{font-size:23.82px;}.cls-7{fill:#35535d;}</style></defs><g id="Marcas_de_recorte" data-name="Marcas de recorte"><circle class="cls-1" cx="124" cy="124" r="124"/><rect class="cls-2" x="40.68" y="83.72" width="119.53" height="149.15"/><rect class="cls-3" x="40.68" y="67.23" width="119.53" height="15.17"/><path class="cls-4" d="M195.23,88.58H75.69c-4.73,0-8.57,3.48-8.57,7.78V256.72c0,4.29,3.84,7.78,8.57,7.78H195.23c4.73,0,8.57-3.49,8.57-7.78V96.36C203.8,92.06,200,88.58,195.23,88.58ZM75.69,96.36H195.23v12.9H75.69ZM195.23,256.72H75.69V117H195.23Z" transform="translate(-35.01 -28.58)"/><rect class="cls-4" x="125.52" y="154.91" width="16.71" height="50.09"/><rect class="cls-4" x="103.24" y="141.55" width="16.71" height="63.45"/><rect class="cls-4" x="80.96" y="167.92" width="16.71" height="37.08"/><rect class="cls-4" x="58.67" y="132.6" width="16.72" height="72.4"/><text class="cls-5" transform="translate(58.67 116.77) scale(1.14 1)">7<tspan class="cls-6" x="9.55" y="0">2</tspan><tspan x="21.77" y="0">%</tspan></text><text class="cls-5" transform="translate(105.63 127.09) scale(1.14 1)">7<tspan class="cls-6" x="9.55" y="0">2</tspan><tspan x="21.77" y="0">%</tspan></text><rect class="cls-7" x="56.79" y="213.12" width="57.76" height="4.09"/><rect class="cls-7" x="123.69" y="213.12" width="20.85" height="4.09"/><path class="cls-4" d="M280.41,37H194a7.56,7.56,0,0,0-7.57,7.57v59.74a7.58,7.58,0,0,0,7.57,7.57h9.75l-4.17,19.31,33-19.31h47.91a7.56,7.56,0,0,0,7.56-7.57V44.5A7.58,7.58,0,0,0,280.41,37Z" transform="translate(-35.01 -28.58)"/><polygon class="cls-7" points="172.86 59.66 169.56 57.12 191.24 29 212.34 49.43 232.35 33.42 234.95 36.7 212.08 55.01 191.69 35.25 172.86 59.66"/><path class="cls-4" d="M268.68,55.88a7.76,7.76,0,1,1-7.76,7.76A7.77,7.77,0,0,1,268.68,55.88Z" transform="translate(-35.01 -28.58)"/><path class="cls-2" d="M247.22,72.27a11.17,11.17,0,1,1-11.16,11.16A11.17,11.17,0,0,1,247.22,72.27Z" transform="translate(-35.01 -28.58)"/><path class="cls-4" d="M226.47,53a7.77,7.77,0,1,1-7.76,7.77A7.76,7.76,0,0,1,226.47,53Z" transform="translate(-35.01 -28.58)"/><path class="cls-4" d="M205.7,79.2A7.76,7.76,0,1,1,197.94,87,7.76,7.76,0,0,1,205.7,79.2Z" transform="translate(-35.01 -28.58)"/></g></svg>