<svg xmlns="http://www.w3.org/2000/svg" viewBox="0 0 251.39 248"><defs><style>.cls-1{fill:#ebebec;}.cls-2{fill:#fff;stroke:#35535d;stroke-miterlimit:10;stroke-width:2px;}.cls-3{fill:#e7e6e6;}.cls-4{fill:#ea5d56;}.cls-5{font-size:12.29px;fill:#324a5e;font-family:GloberBlack;}.cls-6{font-size:15.72px;}.cls-7{fill:#35535d;}</style></defs><g id="Marcas_de_recorte" data-name="Marcas de recorte"><circle class="cls-1" cx="124" cy="124" r="124"/><rect class="cls-2" x="25.02" y="9" width="166.63" height="229.45"/><rect class="cls-3" x="26.32" y="10.34" width="164.02" height="18.52"/><path class="cls-2" d="M77.85,56.37a3.52,3.52,0,1,1-3.52-3.52A3.53,3.53,0,0,1,77.85,56.37Z" transform="translate(-37.69 -36.8)"/><path class="cls-2" d="M91.1,56.37a3.52,3.52,0,1,1-3.51-3.52A3.52,3.52,0,0,1,91.1,56.37Z" transform="translate(-37.69 -36.8)"/><circle class="cls-2" cx="63.16" cy="19.57" r="3.52"/><path class="cls-2" d="M139.48,214.79v-5.62a23.66,23.66,0,0,1-9.95-2.46l1.76-6.84a20.73,20.73,0,0,0,9.71,2.57c3.34,0,5.68-1.34,5.68-3.63s-1.94-3.62-6.27-5.09c-6.26-2.1-10.53-5-10.53-10.71,0-5.2,3.63-9.24,9.89-10.41V167h5.74v5.15a20.65,20.65,0,0,1,8.54,1.93l-1.75,6.61a18.29,18.29,0,0,0-8.43-2c-3.8,0-5,1.7-5,3.34,0,1.87,2,3.16,7,5,7,2.46,9.77,5.68,9.77,11s-3.63,9.6-10.42,10.77v6Z" transform="translate(-37.69 -36.8)"/><path class="cls-2" d="M236.37,201.65H288A55.6,55.6,0,0,0,236.37,150Z" transform="translate(-37.69 -36.8)"/><path class="cls-2" d="M273.4,243.17A55.39,55.39,0,0,0,288,209.32H239.55Z" transform="translate(-37.69 -36.8)"/><text x="-37.69" y="-36.8"/><polygon class="cls-2" points="151.82 67.29 133.34 71.39 137.8 75.89 106.2 107.49 96.56 97.85 65.29 129.13 70.35 134.18 96.56 108.01 106.2 117.64 142.86 80.95 147.72 85.76 151.82 67.29"/><polygon class="cls-4" points="143.94 117.47 125.48 113.38 129.93 108.88 98.33 77.28 80.79 94.83 49.51 63.55 54.57 58.49 80.79 84.67 98.33 67.12 135.03 103.82 139.85 99 143.94 117.47"/><text class="cls-5" transform="translate(151.82 95.5) scale(1.14 1)">7<tspan class="cls-6" x="6.31" y="0">2</tspan><tspan x="14.37" y="0">%</tspan></text><text class="cls-5" transform="translate(44.12 106.41) scale(1.14 1)">7<tspan class="cls-6" x="6.31" y="0">2</tspan><tspan x="14.37" y="0">%</tspan></text><polygon class="cls-4" points="61.25 142.64 48.69 142.65 48.69 222.41 61.24 222.42 61.25 142.64"/><rect class="cls-4" x="71.04" y="169.77" width="12.55" height="52.64"/><rect class="cls-4" x="93.37" y="198.92" width="12.55" height="23.5"/><rect class="cls-4" x="115.71" y="186.93" width="12.54" height="35.48"/><rect class="cls-2" x="32.05" y="33.37" width="152.64" height="13.75"/><rect class="cls-7" x="75.05" y="53.43" width="29.33" height="2.7"/><rect class="cls-7" x="111.72" y="53.43" width="72.97" height="2.7"/></g></svg>