<?xml version="1.0" encoding="utf-8"?>
<!-- Generator: Adobe Illustrator 25.4.6, SVG Export Plug-In . SVG Version: 6.00 Build 0)  -->
<svg version="1.1" id="Layer_1" xmlns="http://www.w3.org/2000/svg" xmlns:xlink="http://www.w3.org/1999/xlink" x="0px" y="0px"
	 viewBox="0 0 16.1 15.7" style="enable-background:new 0 0 16.1 15.7;" xml:space="preserve">
<style type="text/css">
	.st0{fill-rule:evenodd;clip-rule:evenodd;fill:#FFFFFF;}
</style>
<path class="st0" d="M8.1,0C3.6,0,0,3.6,0,8.1c0,3.6,2.3,6.6,5.5,7.6c0.4,0.1,0.6-0.2,0.6-0.4c0-0.2,0-0.7,0-1.4
	c-2.2,0.5-2.7-1.1-2.7-1.1c-0.4-0.9-0.9-1.2-0.9-1.2c-0.7-0.5,0.1-0.5,0.1-0.5C3.3,11.3,3.7,12,3.7,12c0.7,1.2,1.9,0.9,2.3,0.7
	c0.1-0.5,0.3-0.9,0.5-1.1c-1.8-0.2-3.7-0.9-3.7-4c0-0.9,0.3-1.6,0.8-2.2c-0.1-0.2-0.4-1,0.1-2.1c0,0,0.7-0.2,2.2,0.8
	c0.6-0.2,1.3-0.3,2-0.3c0.7,0,1.4,0.1,2,0.3c1.5-1,2.2-0.8,2.2-0.8c0.4,1.1,0.2,1.9,0.1,2.1c0.5,0.6,0.8,1.3,0.8,2.2
	c0,3.1-1.9,3.8-3.7,4c0.3,0.2,0.5,0.7,0.5,1.5c0,1.1,0,1.9,0,2.2c0,0.2,0.1,0.5,0.6,0.4c3.2-1.1,5.5-4.1,5.5-7.6
	C16.1,3.6,12.5,0,8.1,0z"/>
</svg>
