<?xml version="1.0" encoding="utf-8"?>
<!-- Generator: Adobe Illustrator 25.4.6, SVG Export Plug-In . SVG Version: 6.00 Build 0)  -->
<svg version="1.1" id="Layer_1" xmlns="http://www.w3.org/2000/svg" xmlns:xlink="http://www.w3.org/1999/xlink" x="0px" y="0px"
	 viewBox="0 0 144 327" style="enable-background:new 0 0 144 327;" xml:space="preserve">
<style type="text/css">
	.st0{fill:#F79D94;}
	.st1{fill:#FFFFFF;}
	.st2{fill:#D8D9D8;}
</style>
<g>
	<g>
		<path class="st0" d="M136,280H8c-4.4,0-8-3.6-8-8V8c0-4.4,3.6-8,8-8h128c4.4,0,8,3.6,8,8v264C144,276.4,140.4,280,136,280z"/>
	</g>
	<g>
		<path class="st1" d="M126,327H18c-3.3,0-6-2.7-6-6V65.3c0-3.3,2.7-6,6-6h108c3.3,0,6,2.7,6,6V321C132,324.3,129.3,327,126,327z"/>
	</g>
	<g>
		<path class="st2" d="M120,136.5H24c-2.2,0-4-1.8-4-4v-60c0-2.2,1.8-4,4-4h96c2.2,0,4,1.8,4,4v60C124,134.7,122.2,136.5,120,136.5z
			"/>
	</g>
	<g>
		<path class="st2" d="M120,166H24c-2.2,0-4-1.8-4-4v-12.5c0-2.2,1.8-4,4-4h96c2.2,0,4,1.8,4,4V162C124,164.2,122.2,166,120,166z"/>
	</g>
	<g>
		<path class="st2" d="M120,196H24c-2.2,0-4-1.8-4-4v-12.5c0-2.2,1.8-4,4-4h96c2.2,0,4,1.8,4,4V192C124,194.2,122.2,196,120,196z"/>
	</g>
	<g>
		<path class="st2" d="M120,315H24c-2.2,0-4-1.8-4-4v-12.5c0-2.2,1.8-4,4-4h96c2.2,0,4,1.8,4,4V311C124,313.2,122.2,315,120,315z"/>
	</g>
	<g>
		<path class="st2" d="M120,282H24c-2.2,0-4-1.8-4-4v-70.5c0-2.2,1.8-4,4-4h96c2.2,0,4,1.8,4,4V278C124,280.2,122.2,282,120,282z"/>
	</g>
</g>
</svg>
